<svg xmlns="http://www.w3.org/2000/svg" viewBox="0 0 266.71 27.5">
    <defs>
        <style>.cls-1{fill:#ff0691;}.cls-2{fill:#4dc42e;}.cls-3{fill:#00aec9;}.cls-4{fill:#373738;}</style>
    </defs>
    <g id="Layer_2" data-name="Layer 2">
        <g id="Layer_1-2" data-name="Layer 1">
            <path class="cls-1"
                  d="M15.91.17c-3.05,4.57-6.86,4-11.66,7.61A11.94,11.94,0,0,0,0,13.54,13.75,13.75,0,0,1,13.53,0,14.34,14.34,0,0,1,15.91.17Z"/>
            <path class="cls-2"
                  d="M12,27.38A13.75,13.75,0,0,1,.29,16.58,10.7,10.7,0,0,0,5.2,21.35s.68-6.64,1.76-9C6.94,12.59,6.15,19.11,12,27.38Z"/>
            <path class="cls-3"
                  d="M21.75,12.26C16,17.27,13.48,22.35,13,27.48,6.33,19.92,9.27,10.77,9.27,10.77,10.22,23.38,15.78,14.56,21.75,12.26Z"/>
            <circle class="cls-2" cx="3.58" cy="16.6" r="1.49"/>
            <circle class="cls-1" cx="21.21" cy="19.85" r="1.49"/>
            <circle class="cls-3" cx="12.66" cy="13.34" r="2.03"/>
            <path class="cls-3"
                  d="M22.68,3.3c-1.09,1.62-4.32,3.32-9.2,3.8-5.43.55-6.24,4.21-6.24,4.21C7.51,9,8.32,7.78,12,5.48A13.36,13.36,0,0,0,16.64.31,13.6,13.6,0,0,1,22.68,3.3Z"/>
            <path class="cls-2"
                  d="M27.29,16.17a14.86,14.86,0,0,0-6.76-9.61,11.57,11.57,0,0,0,2.52-2.94,13.74,13.74,0,0,1,4.45,9.91A14.4,14.4,0,0,1,27.29,16.17Z"/>
            <path class="cls-1"
                  d="M26.79,18.1A13.76,13.76,0,0,1,14,27.5h-.23c0-7.52,6.52-10.77,6.52-10.77S17.54,20,17.41,23.38C17.41,23.38,25.45,21.62,26.79,18.1Z"/>
            <circle class="cls-1" cx="23.92" cy="16.06" r="1.81"/>
            <circle class="cls-2" cx="3.98" cy="11.99" r="1.81"/>
            <circle class="cls-3" cx="18.77" cy="9.82" r="2.4"/>
            <path class="cls-4"
                  d="M47.56,16.35a3.93,3.93,0,0,1-4.1,4h-5V7.2h3.58a3.62,3.62,0,0,1,3.82,3.48,2.31,2.31,0,0,1-1.24,2.26A3.27,3.27,0,0,1,47.56,16.35ZM41.13,9.77v2.57H42.2A1.28,1.28,0,0,0,43.44,11a1.23,1.23,0,0,0-1.19-1.26ZM45,16.17c0-.76-.53-1.52-1.78-1.52H41.13v3.11h2.09A1.68,1.68,0,0,0,45,16.17Z"/>
            <path class="cls-4" d="M51.68,9.8v2.57h4.54V15H51.68v2.72H57v2.62H49V7.2H57V9.8Z"/>
            <path class="cls-4"
                  d="M66.88,18.51H61.63l-.84,1.83H57.93L64.21,6.88h.08l6.29,13.46H67.72Zm-1-2.25-1.6-3.52-1.61,3.52Z"/>
            <path class="cls-4"
                  d="M70.09,13.78a6.94,6.94,0,0,1,6.83-6.85,6.61,6.61,0,0,1,4.6,2L80,11a4.49,4.49,0,0,0-3.11-1.42,4.27,4.27,0,0,0-4.12,4.18,4.26,4.26,0,0,0,4.11,4.14A4.54,4.54,0,0,0,80,16.44l1.51,2.14a6.21,6.21,0,0,1-4.55,2A6.9,6.9,0,0,1,70.09,13.78Z"/>
            <path class="cls-4"
                  d="M81.87,13.79a6.84,6.84,0,1,1,6.82,6.8A6.86,6.86,0,0,1,81.87,13.79Zm11,0a4.17,4.17,0,1,0-4.18,4.15A4.18,4.18,0,0,0,92.87,13.77Z"/>
            <path class="cls-4" d="M107.81,7.17V20.58h-.12L99.89,13v7.36H97.25V7h.13l7.78,7.57V7.17Z"/>
            <path class="cls-4" d="M123.3,9.82h-3.23V20.34h-2.65V9.82h-3.23V7.2h9.11Z"/>
            <path class="cls-4"
                  d="M124.67,15.48V7.2h2.65v8.27a2.42,2.42,0,1,0,4.83,0V7.2h2.66v8.28a5.07,5.07,0,1,1-10.14,0Z"/>
            <path class="cls-4" d="M145.29,9.82h-3.23V20.34h-2.65V9.82h-3.24V7.2h9.12Z"/>
            <path class="cls-4"
                  d="M145.55,13.79a6.84,6.84,0,1,1,6.82,6.8A6.86,6.86,0,0,1,145.55,13.79Zm11,0a4.17,4.17,0,1,0-4.17,4.15A4.17,4.17,0,0,0,156.54,13.77Z"/>
            <path class="cls-4"
                  d="M167.76,20.34l-4.19-6.21v6.21h-2.64V7.2h4.28a4.36,4.36,0,0,1,4.47,4.26,3.86,3.86,0,0,1-2.43,3.66L171,20.34Zm-4.19-7.22h1.69a1.66,1.66,0,1,0,0-3.31h-1.69Z"/>
            <path class="cls-4"
                  d="M171.55,18.07l2.11-1.48a2.78,2.78,0,0,0,2.56,1.35c1.23,0,2.07-.5,2.07-1.2,0-1-1.58-1.72-2.95-2.41s-3.1-1.54-3.1-3.63c0-2.28,1.92-3.78,4.33-3.78a3.82,3.82,0,0,1,3.88,2.34l-1.95,1.36a2,2,0,0,0-1.89-1.1c-1,0-1.71.57-1.71,1.24s1,1.05,2.5,1.76c2.17,1,3.54,2.14,3.54,4.16,0,2.4-1.95,3.92-4.77,3.92A4.91,4.91,0,0,1,171.55,18.07Z"/>
            <path class="cls-2"
                  d="M187.43,7.2H192a4.54,4.54,0,0,1,4.62,4.44A4.53,4.53,0,0,1,192,16.07h-2v4.27h-2.64ZM194,11.62a1.89,1.89,0,0,0-2-1.8h-2v3.63h2A1.9,1.9,0,0,0,194,11.62Z"/>
            <path class="cls-2"
                  d="M203.68,18.51h-5.26l-.84,1.83h-2.85L201,6.88h.08l6.28,13.46h-2.86Zm-1-2.25-1.59-3.52-1.61,3.52Z"/>
            <path class="cls-2" d="M215.31,20.34l-4-5.75v5.75h-2.64V7.2h2.64v5.68L215,7.2h3.05l-4.22,6.43,4.68,6.71Z"/>
            <path class="cls-2" d="M219.78,7.2h2.64V20.34h-2.64Z"/>
            <path class="cls-2"
                  d="M224,18.07l2.12-1.48a2.75,2.75,0,0,0,2.55,1.35c1.24,0,2.07-.5,2.07-1.2,0-1-1.58-1.72-2.95-2.41s-3.1-1.54-3.1-3.63c0-2.28,1.92-3.78,4.34-3.78a3.82,3.82,0,0,1,3.87,2.34L231,10.62a2,2,0,0,0-1.88-1.1c-1,0-1.72.57-1.72,1.24s1,1.05,2.5,1.76c2.17,1,3.54,2.14,3.54,4.16,0,2.4-2,3.92-4.76,3.92A4.91,4.91,0,0,1,224,18.07Z"/>
            <path class="cls-2" d="M243.31,9.82h-3.22V20.34h-2.65V9.82H234.2V7.2h9.11Z"/>
            <path class="cls-2"
                  d="M251.15,18.51h-5.26l-.84,1.83H242.2l6.27-13.46h.08l6.29,13.46H252Zm-1-2.25-1.6-3.52-1.6,3.52Z"/>
            <path class="cls-2" d="M266.71,7.17V20.58h-.12L258.79,13v7.36h-2.64V7h.13l7.78,7.57V7.17Z"/>
        </g>
    </g>
</svg>